<svg width="50" height="50" viewBox="0 0 50 50" fill="none" xmlns="http://www.w3.org/2000/svg">
<rect width="50" height="50" rx="25" fill="#FFCB3D"/>
<path d="M18.5 21.4C17.785 21.4 17.1729 21.165 16.6638 20.695C16.1546 20.225 15.9 19.66 15.9 19C15.9 18.34 16.1546 17.775 16.6638 17.305C17.1729 16.835 17.785 16.6 18.5 16.6C19.215 16.6 19.8271 16.835 20.3362 17.305C20.8454 17.775 21.1 18.34 21.1 19C21.1 19.66 20.8454 20.225 20.3362 20.695C19.8271 21.165 19.215 21.4 18.5 21.4ZM15.9 37C15.5317 37 15.2229 36.885 14.9738 36.655C14.7246 36.425 14.6 36.14 14.6 35.8C13.885 35.8 13.2729 35.565 12.7638 35.095C12.2546 34.625 12 34.06 12 33.4V26.2H15.9V25.3C15.9 24.54 16.1817 23.9 16.745 23.38C17.3083 22.86 18.0017 22.6 18.825 22.6C19.2583 22.6 19.6592 22.68 20.0275 22.84C20.3958 23 20.7317 23.22 21.035 23.5L22.855 25.36C23.0283 25.52 23.1963 25.67 23.3588 25.81C23.5213 25.95 23.7 26.08 23.895 26.2H32.8V16.42C32.8 16.14 32.6917 15.9 32.475 15.7C32.2583 15.5 31.9983 15.4 31.695 15.4C31.565 15.4 31.4404 15.425 31.3213 15.475C31.2021 15.525 31.0883 15.6 30.98 15.7L29.355 17.2C29.4633 17.54 29.485 17.875 29.42 18.205C29.355 18.535 29.225 18.84 29.03 19.12L25.455 15.76C25.7583 15.58 26.0833 15.465 26.43 15.415C26.7767 15.365 27.1233 15.4 27.47 15.52L29.095 14.02C29.4417 13.7 29.8371 13.45 30.2813 13.27C30.7254 13.09 31.1967 13 31.695 13C32.735 13 33.6125 13.33 34.3275 13.99C35.0425 14.65 35.4 15.46 35.4 16.42V26.2H38V33.4C38 34.06 37.7454 34.625 37.2363 35.095C36.7271 35.565 36.115 35.8 35.4 35.8C35.4 36.14 35.2754 36.425 35.0262 36.655C34.7771 36.885 34.4683 37 34.1 37H15.9ZM14.6 33.4H35.4V28.6H14.6V33.4Z" fill="white"/>
</svg>
