<svg width="50" height="50" viewBox="0 0 50 50" fill="none" xmlns="http://www.w3.org/2000/svg">
<rect width="50" height="50" rx="25" fill="#FFCB3D"/>
<path d="M11 35V26.4286C11 25.7857 11.1283 25.2024 11.385 24.6786C11.6417 24.1548 11.98 23.6905 12.4 23.2857V19.2857C12.4 18.0952 12.8083 17.0833 13.625 16.25C14.4417 15.4167 15.4333 15 16.6 15H22.2C22.7367 15 23.2383 15.1012 23.705 15.3036C24.1717 15.506 24.6033 15.7857 25 16.1429C25.3967 15.7857 25.8283 15.506 26.295 15.3036C26.7617 15.1012 27.2633 15 27.8 15H33.4C34.5667 15 35.5583 15.4167 36.375 16.25C37.1917 17.0833 37.6 18.0952 37.6 19.2857V23.2857C38.02 23.6905 38.3583 24.1548 38.615 24.6786C38.8717 25.2024 39 25.7857 39 26.4286V35H36.2V32.1429H13.8V35H11ZM26.4 22.1429H34.8V19.2857C34.8 18.881 34.6658 18.5417 34.3975 18.2679C34.1292 17.994 33.7967 17.8571 33.4 17.8571H27.8C27.4033 17.8571 27.0708 17.994 26.8025 18.2679C26.5342 18.5417 26.4 18.881 26.4 19.2857V22.1429ZM15.2 22.1429H23.6V19.2857C23.6 18.881 23.4658 18.5417 23.1975 18.2679C22.9292 17.994 22.5967 17.8571 22.2 17.8571H16.6C16.2033 17.8571 15.8708 17.994 15.6025 18.2679C15.3342 18.5417 15.2 18.881 15.2 19.2857V22.1429ZM13.8 29.2857H36.2V26.4286C36.2 26.0238 36.0658 25.6845 35.7975 25.4107C35.5292 25.1369 35.1967 25 34.8 25H15.2C14.8033 25 14.4708 25.1369 14.2025 25.4107C13.9342 25.6845 13.8 26.0238 13.8 26.4286V29.2857Z" fill="white"/>
</svg>
