<svg width="20" height="20" viewBox="0 0 20 20" fill="none" xmlns="http://www.w3.org/2000/svg">
<mask id="mask0_567_628" style="mask-type:alpha" maskUnits="userSpaceOnUse" x="0" y="0" width="20" height="20">
<rect width="20" height="20" fill="#D9D9D9"/>
</mask>
<g mask="url(#mask0_567_628)">
<path d="M4.16703 15.8333H5.35453L13.5004 7.6875L12.3129 6.5L4.16703 14.6458V15.8333ZM2.50037 17.5V13.9583L13.5004 2.97917C13.667 2.82639 13.8511 2.70833 14.0525 2.625C14.2538 2.54167 14.4656 2.5 14.6879 2.5C14.9101 2.5 15.1254 2.54167 15.3337 2.625C15.542 2.70833 15.7226 2.83333 15.8754 3L17.0212 4.16667C17.1879 4.31944 17.3094 4.5 17.3858 4.70833C17.4622 4.91667 17.5004 5.125 17.5004 5.33333C17.5004 5.55556 17.4622 5.76736 17.3858 5.96875C17.3094 6.17014 17.1879 6.35417 17.0212 6.52083L6.04203 17.5H2.50037ZM12.8962 7.10417L12.3129 6.5L13.5004 7.6875L12.8962 7.10417Z" fill="#C7DCF0"/>
</g>
</svg>
