<svg width="20" height="20" viewBox="0 0 20 20" fill="none" xmlns="http://www.w3.org/2000/svg">
<path d="M10.0199 10.8873L4.25216 10.8873L6.15129 12.7007L5.62109 13.2373L2.97009 10.5541L5.62109 7.87088L6.16076 8.40752L4.25216 10.1555L10.0199 10.1556V10.8873Z" fill="#C7DCF0"/>
<path d="M11.1068 0V1.45783H6.40967V18.5212H11.1068V20.0004L19.9909 18.4807L20 1.53031L11.1068 0ZM12.6712 9.33068C12.9659 9.33068 13.2048 9.63046 13.2048 10.0002C13.2048 10.37 12.966 10.6697 12.6712 10.6697C12.3765 10.6697 12.1376 10.37 12.1376 10.0002C12.1375 9.63046 12.3765 9.33068 12.6712 9.33068ZM7.83663 17.1465V2.83371H11.1068V17.1465H7.83663Z" fill="#C7DCF0"/>
</svg>
