<svg width="28" height="40" viewBox="0 0 28 40" fill="none" xmlns="http://www.w3.org/2000/svg">
<path d="M3.5 13.3333H19.25V9.52381C19.25 7.93651 18.7396 6.5873 17.7187 5.47619C16.6979 4.36508 15.4583 3.80952 14 3.80952C12.5417 3.80952 11.3021 4.36508 10.2812 5.47619C9.26042 6.5873 8.75 7.93651 8.75 9.52381H5.25C5.25 6.88889 6.10312 4.64286 7.80937 2.78571C9.51562 0.928571 11.5792 0 14 0C16.4208 0 18.4844 0.928571 20.1906 2.78571C21.8969 4.64286 22.75 6.88889 22.75 9.52381V13.3333H24.5C25.4625 13.3333 26.2865 13.7063 26.9719 14.4524C27.6573 15.1984 28 16.0952 28 17.1429V36.1905C28 37.2381 27.6573 38.1349 26.9719 38.881C26.2865 39.627 25.4625 40 24.5 40H3.5C2.5375 40 1.71354 39.627 1.02812 38.881C0.342708 38.1349 0 37.2381 0 36.1905V17.1429C0 16.0952 0.342708 15.1984 1.02812 14.4524C1.71354 13.7063 2.5375 13.3333 3.5 13.3333ZM3.5 36.1905H24.5V17.1429H3.5V36.1905ZM14 30.4762C14.9625 30.4762 15.7865 30.1032 16.4719 29.3571C17.1573 28.6111 17.5 27.7143 17.5 26.6667C17.5 25.619 17.1573 24.7222 16.4719 23.9762C15.7865 23.2302 14.9625 22.8571 14 22.8571C13.0375 22.8571 12.2135 23.2302 11.5281 23.9762C10.8427 24.7222 10.5 25.619 10.5 26.6667C10.5 27.7143 10.8427 28.6111 11.5281 29.3571C12.2135 30.1032 13.0375 30.4762 14 30.4762Z" fill="#495675"/>
</svg>
