<svg width="20" height="20" viewBox="0 0 20 20" fill="none" xmlns="http://www.w3.org/2000/svg">
<mask id="mask0_567_620" style="mask-type:alpha" maskUnits="userSpaceOnUse" x="1" y="0" width="19" height="20">
<rect x="1.81348" width="18.1865" height="20" fill="#D9D9D9"/>
</mask>
<g mask="url(#mask0_567_620)">
<path d="M5.60197 15.8343H6.6818L14.089 7.68848L13.0092 6.50098L5.60197 14.6468V15.8343ZM4.08643 17.501V13.9593L14.089 2.98014C14.2406 2.82737 14.4079 2.70931 14.591 2.62598C14.7742 2.54264 14.9668 2.50098 15.1688 2.50098C15.3709 2.50098 15.5667 2.54264 15.7561 2.62598C15.9456 2.70931 16.1097 2.83431 16.2487 3.00098L17.2906 4.16764C17.4422 4.32042 17.5527 4.50098 17.6221 4.70931C17.6916 4.91764 17.7263 5.12598 17.7263 5.33431C17.7263 5.55653 17.6916 5.76834 17.6221 5.96973C17.5527 6.17112 17.4422 6.35514 17.2906 6.52181L7.30696 17.501H4.08643ZM13.5396 7.10514L13.0092 6.50098L14.089 7.68848L13.5396 7.10514Z" fill="#C7DCF0"/>
</g>
<path d="M2.42487 9L0 6.44681L0.848705 5.55319L2.42487 7.21277L6.42591 3L7.27461 3.89362L2.42487 9Z" fill="#C7DCF0"/>
</svg>
