<svg width="20" height="20" viewBox="0 0 20 20" fill="none" xmlns="http://www.w3.org/2000/svg">
<mask id="mask0_642_978" style="mask-type:alpha" maskUnits="userSpaceOnUse" x="1" y="0" width="19" height="20">
<rect x="1.81348" width="18.1864" height="19.9991" fill="#D9D9D9"/>
</mask>
<g mask="url(#mask0_642_978)">
<path d="M5.60196 15.8326H6.68178L14.089 7.68714L13.0091 6.4997L5.60196 14.6452V15.8326ZM4.08643 17.4992V13.9577L14.089 2.97902C14.2405 2.82625 14.4079 2.7082 14.591 2.62487C14.7741 2.54154 14.9667 2.49988 15.1688 2.49988C15.3709 2.49988 15.5666 2.54154 15.756 2.62487C15.9455 2.7082 16.1097 2.8332 16.2486 2.99986L17.2905 4.16647C17.4421 4.31924 17.5526 4.49979 17.6221 4.70811C17.6915 4.91643 17.7262 5.12476 17.7262 5.33308C17.7262 5.55529 17.6915 5.76709 17.6221 5.96847C17.5526 6.16985 17.4421 6.35387 17.2905 6.52053L7.30694 17.4992H4.08643ZM13.5396 7.10383L13.0091 6.4997L14.089 7.68714L13.5396 7.10383Z" fill="#495675"/>
</g>
<path d="M2.42486 8.99936L0 6.44628L0.8487 5.55271L2.42486 7.21221L6.42587 2.99963L7.27457 3.89321L2.42486 8.99936Z" fill="#495675"/>
</svg>
