<svg width="34" height="40" viewBox="0 0 34 40" fill="none" xmlns="http://www.w3.org/2000/svg">
<path d="M3.57895 36.1905H25.0526V17.1429H3.57895V36.1905ZM14.3158 30.4762C15.3 30.4762 16.1425 30.1032 16.8434 29.3571C17.5443 28.6111 17.8947 27.7143 17.8947 26.6667C17.8947 25.619 17.5443 24.7222 16.8434 23.9762C16.1425 23.2302 15.3 22.8571 14.3158 22.8571C13.3316 22.8571 12.489 23.2302 11.7882 23.9762C11.0873 24.7222 10.7368 25.619 10.7368 26.6667C10.7368 27.7143 11.0873 28.6111 11.7882 29.3571C12.489 30.1032 13.3316 30.4762 14.3158 30.4762ZM3.57895 40C2.59474 40 1.75219 39.627 1.05132 38.881C0.350439 38.1349 0 37.2381 0 36.1905V17.1429C0 16.0952 0.350439 15.1984 1.05132 14.4524C1.75219 13.7063 2.59474 13.3333 3.57895 13.3333H16.1053V9.52381C16.1053 6.88889 16.9776 4.64286 18.7224 2.78571C20.4671 0.928571 22.5772 0 25.0526 0C27.5281 0 29.6382 0.928571 31.3829 2.78571C33.1276 4.64286 34 6.88889 34 9.52381H30.4211C30.4211 7.93651 29.8991 6.5873 28.8553 5.47619C27.8114 4.36508 26.5439 3.80952 25.0526 3.80952C23.5614 3.80952 22.2939 4.36508 21.25 5.47619C20.2061 6.5873 19.6842 7.93651 19.6842 9.52381V13.3333H25.0526C26.0368 13.3333 26.8794 13.7063 27.5803 14.4524C28.2811 15.1984 28.6316 16.0952 28.6316 17.1429V36.1905C28.6316 37.2381 28.2811 38.1349 27.5803 38.881C26.8794 39.627 26.0368 40 25.0526 40H3.57895Z" fill="#495675"/>
</svg>
