<svg width="48" height="47" viewBox="0 0 48 47" fill="none" xmlns="http://www.w3.org/2000/svg">
<rect x="0.5" width="47" height="47" rx="23.5" fill="#FFCB3D"/>
<path d="M13.2 34V23.5H10.5V20.875H15.9C15.1575 20.875 14.5219 20.618 13.9931 20.1039C13.4644 19.5898 13.2 18.9719 13.2 18.25V13H21.3V18.25C21.3 18.9719 21.0356 19.5898 20.5069 20.1039C19.9781 20.618 19.3425 20.875 18.6 20.875H29.4V16.9375C29.4 16.5656 29.2706 16.2539 29.0119 16.0023C28.7531 15.7508 28.4325 15.625 28.05 15.625C27.6675 15.625 27.3469 15.7508 27.0881 16.0023C26.8294 16.2539 26.7 16.5656 26.7 16.9375H24C24 15.8438 24.3938 14.9141 25.1813 14.1484C25.9688 13.3828 26.925 13 28.05 13C29.175 13 30.1312 13.3828 30.9187 14.1484C31.7062 14.9141 32.1 15.8438 32.1 16.9375V20.875H37.5V23.5H34.8V34H13.2ZM15.9 18.25H18.6V15.625H15.9V18.25ZM15.9 31.375H22.65V23.5H15.9V31.375ZM25.35 31.375H32.1V23.5H25.35V31.375Z" fill="white"/>
</svg>
