<svg width="50" height="50" viewBox="0 0 50 50" fill="none" xmlns="http://www.w3.org/2000/svg">
<rect width="50" height="50" rx="25" fill="#FFCB3D"/>
<path d="M35 37.5V19.6429C35 18.9881 34.7552 18.4276 34.2656 17.9613C33.776 17.495 33.1875 17.2619 32.5 17.2619H31.25V18.8095C31.25 19.0476 31.1667 19.246 31 19.4048C30.8333 19.5635 30.625 19.6429 30.375 19.6429H23.375C23.0833 19.6429 22.849 19.494 22.6719 19.1964C22.4948 18.8988 22.4792 18.6111 22.625 18.3333L25 13.4524C25.1458 13.1548 25.3594 12.9216 25.6406 12.753C25.9219 12.5843 26.25 12.5 26.625 12.5H29.5C30 12.5 30.4167 12.6786 30.75 13.0357C31.0833 13.3929 31.25 13.8095 31.25 14.2857V14.881H32.5C33.875 14.881 35.0521 15.3472 36.0313 16.2798C37.0104 17.2123 37.5 18.3333 37.5 19.6429V37.5H35ZM25.875 17.2619H28.75V14.881H27L25.875 17.2619ZM16.25 37.5C15.1875 37.5 14.2969 37.1577 13.5781 36.4732C12.8594 35.7887 12.5 34.9405 12.5 33.9286V30.9524C12.5 30.2976 12.7292 29.6875 13.1875 29.122C13.6458 28.5565 14.25 28.2143 15 28.0952V25.5952C15 24.9405 15.2448 24.38 15.7344 23.9137C16.224 23.4474 16.8125 23.2143 17.5 23.2143H27.5C28.1875 23.2143 28.776 23.4474 29.2656 23.9137C29.7552 24.38 30 24.9405 30 25.5952V28.0952C30.75 28.2143 31.3542 28.5417 31.8125 29.0774C32.2708 29.6131 32.5 30.2381 32.5 30.9524V33.9286C32.5 34.9405 32.1406 35.7887 31.4219 36.4732C30.7031 37.1577 29.8125 37.5 28.75 37.5H16.25ZM17.5 25.5952V28.5714C17.875 28.869 18.1771 29.2212 18.4062 29.628C18.6354 30.0347 18.75 30.4762 18.75 30.9524V31.5476H26.25V30.9524C26.25 30.4762 26.3646 30.0347 26.5938 29.628C26.8229 29.2212 27.125 28.869 27.5 28.5714V25.5952H17.5ZM16.25 35.119H28.75C29.125 35.119 29.4271 34.995 29.6563 34.747C29.8854 34.499 30 34.2262 30 33.9286V30.9524C30 30.7738 29.9427 30.63 29.8281 30.5208C29.7135 30.4117 29.5625 30.3571 29.375 30.3571C29.1875 30.3571 29.0365 30.4117 28.9219 30.5208C28.8073 30.63 28.75 30.7738 28.75 30.9524V33.9286H16.25V30.9524C16.25 30.7738 16.1927 30.63 16.0781 30.5208C15.9635 30.4117 15.8125 30.3571 15.625 30.3571C15.4375 30.3571 15.2865 30.4117 15.1719 30.5208C15.0573 30.63 15 30.7738 15 30.9524V33.9286C15 34.2262 15.1146 34.499 15.3438 34.747C15.5729 34.995 15.875 35.119 16.25 35.119Z" fill="white"/>
</svg>
